<?xml version="1.0" encoding="UTF-8" standalone="no"?>
<!-- Created with Inkscape (http://www.inkscape.org/) -->

<svg
   xmlns:dc="http://purl.org/dc/elements/1.1/"
   xmlns:cc="http://creativecommons.org/ns#"
   xmlns:rdf="http://www.w3.org/1999/02/22-rdf-syntax-ns#"
   xmlns:svg="http://www.w3.org/2000/svg"
   xmlns="http://www.w3.org/2000/svg"
   xmlns:sodipodi="http://sodipodi.sourceforge.net/DTD/sodipodi-0.dtd"
   xmlns:inkscape="http://www.inkscape.org/namespaces/inkscape"
   width="1024"
   height="1024"
   viewBox="0 0 270.93333 270.93333"
   version="1.1"
   id="svg8"
   inkscape:version="0.92.2 5c3e80d, 2017-08-06"
   sodipodi:docname="logo.svg"
   inkscape:export-filename="/mnt/data/RandomCodes/pytelegram/SnatchCarBot/logo.png"
   inkscape:export-xdpi="96.000008"
   inkscape:export-ydpi="96.000008">
  <defs
     id="defs2" />
  <sodipodi:namedview
     id="base"
     pagecolor="#ffffff"
     bordercolor="#666666"
     borderopacity="1.0"
     inkscape:pageopacity="0"
     inkscape:pageshadow="2"
     inkscape:zoom="0.5"
     inkscape:cx="511.65965"
     inkscape:cy="608.87952"
     inkscape:document-units="mm"
     inkscape:current-layer="layer1"
     showgrid="false"
     units="px"
     inkscape:window-width="1920"
     inkscape:window-height="1025"
     inkscape:window-x="0"
     inkscape:window-y="27"
     inkscape:window-maximized="1"
     inkscape:pagecheckerboard="false" />
  <metadata
     id="metadata5">
    <rdf:RDF>
      <cc:Work
         rdf:about="">
        <dc:format>image/svg+xml</dc:format>
        <dc:type
           rdf:resource="http://purl.org/dc/dcmitype/StillImage" />
        <dc:title />
      </cc:Work>
    </rdf:RDF>
  </metadata>
  <g
     inkscape:groupmode="layer"
     id="layer4"
     inkscape:label="bg"
     sodipodi:insensitive="true">
    <rect
       style="fill:#0099cc;fill-opacity:0.93170734;stroke:#000000;stroke-width:0.12923786;stroke-linecap:round;stroke-miterlimit:4;stroke-dasharray:none;stroke-dashoffset:0;stroke-opacity:1"
       id="rect836"
       width="270.80411"
       height="270.80411"
       x="0.06461893"
       y="0.064606734" />
  </g>
  <g
     inkscape:groupmode="layer"
     id="layer2"
     inkscape:label="jazz"
     style="display:none"
     sodipodi:insensitive="true">
    <path
       transform="translate(4.9151339,-12.244416)"
       inkscape:connector-curvature="0"
       id="path4715"
       d="m 45.48531,212.0886 c -1.702793,-0.4411 -3.828599,-1.58289 -5.247789,-2.81866 -1.386972,-1.20771 -2.924817,-3.58689 -3.580913,-5.53998 -0.481855,-1.4344 -0.530315,-1.81078 -0.515604,-4.00457 0.01446,-2.15653 0.07234,-2.57417 0.529208,-3.81831 1.537314,-4.18648 4.407869,-6.90286 8.680946,-8.21472 1.947531,-0.5979 4.740968,-0.59806 6.698765,-3.7e-4 6.463213,1.97306 10.33278,8.19132 9.046799,14.53791 -1.463513,7.22273 -8.538781,11.69081 -15.611412,9.85872 z m 6.161703,-1.94624 c 1.66145,-0.47746 3.222312,-1.40902 4.502517,-2.68722 3.331002,-3.32576 4.091367,-8.06295 2.003062,-12.47936 -0.686743,-1.45234 -2.898498,-3.74452 -4.365892,-4.52465 -1.97721,-1.05116 -5.186525,-1.53245 -7.045162,-1.05653 -2.891363,0.74034 -4.211823,1.48112 -5.899965,3.30985 -3.853329,4.17424 -3.670161,10.69623 0.414268,14.75069 1.194854,1.18609 2.715461,2.13797 4.163649,2.60639 1.701504,0.55036 4.468722,0.58628 6.227523,0.0808 z m -5.091734,-0.4432 c -2.006042,-0.47433 -3.256036,-1.1403 -4.703893,-2.50613 -3.312934,-3.12526 -4.143997,-7.62229 -2.175417,-11.77159 1.284945,-2.70836 3.768822,-4.68254 6.74241,-5.35886 3.081687,-0.70092 5.947596,-0.0667 8.470191,1.87437 4.855205,3.73599 5.203143,10.96517 0.730807,15.18416 -2.550056,2.40558 -5.83817,3.34081 -9.064098,2.57805 z m 3.518822,-0.57436 c 4.56114,-0.65931 7.926064,-4.56994 7.933904,-9.22059 0.0043,-2.55361 -0.855112,-4.67424 -2.653154,-6.54672 -2.862537,-2.98103 -7.437923,-3.6836 -11.142521,-1.71097 -1.30045,0.69246 -2.948497,2.35406 -3.692449,3.72281 -1.644883,3.0263 -1.473017,6.85172 0.437119,9.72946 1.626093,2.44982 4.376236,3.97618 7.553999,4.19254 0.153664,0.0105 0.857059,-0.0645 1.563102,-0.16653 z m -2.984149,-0.64166 c -0.59437,-0.1261 -0.907191,-0.28834 -0.907191,-0.47054 0,-0.15534 0.12331,-0.24595 0.279388,-0.2053 0.730492,0.19024 3.339784,0.22769 3.95867,0.0567 0.718897,-0.1985 1.111136,-0.002 0.739392,0.36899 -0.295021,0.29502 -3.058136,0.46477 -4.070259,0.25004 z m -2.547675,-1.2028 c -1.321056,-0.6164 -1.313425,-0.73603 0.149222,-2.3397 0.373738,-0.40976 1.146977,-1.27323 1.718309,-1.91883 0.615729,-0.69576 1.10707,-1.10551 1.206453,-1.00612 0.212196,0.21219 -1.872564,5.63151 -2.158358,5.61063 -0.11354,-0.008 -0.525573,-0.16397 -0.915626,-0.34598 z m 6.304946,-2.01374 c -0.495755,-1.30615 -1.011521,-2.55563 -1.146146,-2.77665 -0.204008,-0.33491 -0.202041,-0.41824 0.01183,-0.5003 0.157495,-0.0605 0.782091,0.49041 1.617219,1.42627 0.748343,0.8386 1.677431,1.85913 2.064642,2.26784 0.387208,0.40872 0.704016,0.79936 0.704016,0.86808 0,0.15002 -1.847894,1.08956 -2.142956,1.08956 -0.113972,0 -0.61284,-1.06866 -1.108594,-2.3748 z m -3.872861,2.06671 c -0.281717,-0.0491 -0.512213,-0.11129 -0.512213,-0.1382 0,-0.027 0.398129,-1.04817 0.884731,-2.26931 0.81963,-2.05689 0.921424,-2.22073 1.383393,-2.22656 0.466495,-0.006 0.553749,0.13716 1.352565,2.2174 0.469648,1.22304 0.814666,2.26294 0.766708,2.31089 -0.125697,0.1257 -3.268078,0.21147 -3.875184,0.1058 z m -5.082996,-2.39144 c -0.428422,-0.62205 -0.642603,-1.09766 -0.538305,-1.19536 0.35014,-0.32799 5.095813,-2.76162 5.193926,-2.66351 0.164071,0.16407 0.117888,0.36863 -0.142544,0.63137 -0.200835,0.20262 -3.630149,4.03996 -3.761532,4.20909 -0.02201,0.0284 -0.360207,-0.41339 -0.751545,-0.98159 z m 11.702592,-0.34472 c -0.635779,-0.73306 -1.542668,-1.77112 -2.015312,-2.30679 -0.472642,-0.53568 -0.811112,-1.05201 -0.752155,-1.1474 0.141817,-0.22947 5.321133,2.44326 5.321133,2.74591 0,0.18939 -1.040037,1.82005 -1.239418,1.94327 -0.08706,0.0538 -0.67847,-0.50195 -1.314248,-1.23499 z m -13.263631,-1.93818 c -0.102236,-0.38416 -0.241906,-1.05469 -0.310373,-1.49007 -0.101536,-0.64564 -0.07101,-0.7916 0.165503,-0.7916 0.203313,0 0.35584,0.32011 0.510308,1.07099 0.121176,0.58904 0.293216,1.20929 0.382312,1.37832 0.113494,0.21532 0.07481,0.3408 -0.129217,0.41908 -0.425504,0.16329 -0.416711,0.17163 -0.618533,-0.58672 z m 16.051609,0.57561 c -0.164778,-0.0666 -0.178265,-0.19261 -0.04687,-0.43811 0.101455,-0.18956 0.248477,-0.78952 0.326727,-1.33323 0.107971,-0.75029 0.226054,-1.00472 0.489848,-1.05552 0.314097,-0.0605 0.335343,0.0201 0.22055,0.83605 -0.154126,1.0956 -0.463079,2.11899 -0.633659,2.09896 -0.06889,-0.008 -0.22935,-0.0567 -0.356586,-0.10813 z m -14.918581,-1.04103 c -0.101804,-0.33306 -0.234084,-0.89893 -0.293963,-1.25747 l -0.10887,-0.65191 2.328295,0.0572 c 1.280563,0.0314 2.328295,0.12907 2.328295,0.2169 0,0.0878 -0.915449,0.62793 -2.034332,1.20026 l -2.034329,1.04058 z m 12.216336,-0.45573 c -1.101257,-0.57543 -2.002286,-1.11216 -2.002286,-1.19273 0,-0.0806 1.055225,-0.17224 2.344943,-0.20371 l 2.344943,-0.0572 -0.113797,0.70949 c -0.06259,0.39023 -0.216786,0.9527 -0.342658,1.24995 l -0.228859,0.54043 z m -5.67709,-0.18766 c -0.456477,-0.0882 -1.048581,-0.82804 -1.22297,-1.52817 -0.144492,-0.58009 0.26953,-1.56174 0.821841,-1.94859 0.238501,-0.16705 0.731605,-0.30373 1.095786,-0.30373 2.043712,0 2.673054,2.74885 0.829619,3.62363 -0.609462,0.2892 -0.759339,0.30463 -1.524276,0.15686 z m 1.579388,-1.03221 c 0.39719,-0.31777 0.284102,-1.38743 -0.181138,-1.71329 -0.923929,-0.64715 -1.895835,-0.0825 -1.787682,1.03875 0.0926,0.95999 1.156449,1.32448 1.96882,0.67454 z m -1.249823,-0.41109 c -0.357089,-0.43026 -0.159064,-0.94024 0.365092,-0.94024 0.295218,0 0.4837,0.12022 0.525043,0.3349 0.0645,0.33487 -0.259788,0.87578 -0.525043,0.87578 -0.07735,0 -0.241647,-0.1217 -0.365092,-0.27044 z m -8.139925,-0.80811 c -0.06056,-0.24127 -0.03438,-0.7888 0.05817,-1.21671 0.156001,-0.7213 0.208478,-0.7736 0.71986,-0.71746 0.303375,0.0333 0.636404,0.12438 0.740063,0.20235 0.103662,0.078 1.16397,0.50827 2.356248,0.95619 3.018071,1.13385 2.870288,1.34324 -0.896345,1.27004 -2.836137,-0.0551 -2.869108,-0.0606 -2.977991,-0.49441 z m 11.112646,0.28436 c 0,-0.14674 0.314312,-0.39953 0.698471,-0.56178 1.193228,-0.50393 4.712515,-1.81043 4.876691,-1.81043 0.194315,0 0.440903,1.87304 0.296223,2.25006 -0.155543,0.40534 -5.871385,0.52425 -5.871385,0.12215 z m -5.680905,-1.44366 c -0.204884,-0.09 -1.294501,-0.51762 -2.421368,-0.95009 -1.126868,-0.43247 -2.122341,-0.84986 -2.212163,-0.92753 -0.183881,-0.15901 0.423499,-1.22863 0.987524,-1.73907 0.362244,-0.32782 0.420743,-0.29118 2.597434,1.62719 1.224765,1.07941 2.178259,2.01115 2.118878,2.07053 -0.149912,0.14991 -0.627225,0.11374 -1.070305,-0.081 z m 5.071426,0.0762 c -0.06203,-0.062 0.270973,-0.44492 0.740012,-0.85088 0.46904,-0.40595 0.953291,-0.83714 1.076114,-0.9582 0.794081,-0.78268 2.399802,-2.0827 2.57245,-2.0827 0.268726,0 1.470084,1.57456 1.388377,1.81967 -0.06142,0.18429 -5.061931,2.18491 -5.461101,2.18491 -0.111684,0 -0.253819,-0.0508 -0.315852,-0.11281 z m -3.06266,-1.07688 c -0.005,-0.11397 -0.438025,-1.31691 -0.962339,-2.67314 -0.524312,-1.35623 -0.953297,-2.50546 -0.953297,-2.55385 0,-0.1214 1.852297,-0.66118 2.268915,-0.66118 0.313227,0 0.338713,0.2226 0.338713,2.95842 0,2.71213 -0.02842,2.96586 -0.341474,3.04772 -0.187812,0.0492 -0.345544,-0.004 -0.350518,-0.11797 z m -1.870735,-0.71948 c -0.494355,-0.43538 -1.225837,-1.0757 -1.625516,-1.42295 l -0.726688,-0.63134 0.498885,-0.3978 c 0.274388,-0.21879 0.741954,-0.54138 1.039035,-0.71687 l 0.540152,-0.31908 0.766521,2.05329 c 0.42159,1.1293 0.766524,2.09221 0.766524,2.13981 0,0.25645 -0.459124,-7.5e-4 -1.258913,-0.70506 z m 3.307763,-2.17489 c 0,-2.85188 0.01735,-2.9938 0.366009,-2.9938 0.298379,0 2.041681,0.50587 2.188933,0.63519 0.02225,0.0195 -0.400165,1.20421 -0.938687,2.63261 -0.678617,1.8 -1.076902,2.61594 -1.297692,2.65845 -0.289908,0.0558 -0.318563,-0.20793 -0.318563,-2.93245 z m 1.303814,2.82771 c 0,-0.0764 0.346247,-1.03849 0.769435,-2.1381 l 0.769435,-1.99932 0.537238,0.31736 c 0.295482,0.17454 0.756419,0.49212 1.024304,0.70573 l 0.487068,0.38837 -1.609923,1.43237 c -1.491614,1.32711 -1.977557,1.64497 -1.977557,1.29359 z m -7.614397,-3.28023 c -0.162575,-0.1959 -0.07455,-0.36452 0.396627,-0.75983 0.333064,-0.27943 0.919884,-0.67054 1.304043,-0.86914 0.675655,-0.34931 0.698472,-0.34979 0.698472,-0.0147 0,0.19053 -0.199225,0.43719 -0.442721,0.54812 -0.243497,0.11094 -0.736292,0.45948 -1.095099,0.77451 -0.532497,0.46755 -0.690773,0.52654 -0.861322,0.32104 z m 11.24736,-0.11891 c -0.184262,-0.20361 -0.696629,-0.58211 -1.138595,-0.84112 -0.54145,-0.31731 -0.768978,-0.56108 -0.69752,-0.74729 0.08994,-0.23438 0.209104,-0.2181 0.784371,0.1072 0.373074,0.21094 0.958527,0.61356 1.301007,0.89468 0.52536,0.43125 0.580728,0.54597 0.354226,0.73394 -0.214118,0.17771 -0.336284,0.14787 -0.603489,-0.14738 z m 101.696577,18.52397 c -4.23512,-1.11869 -7.59979,-4.18551 -8.957,-8.16409 -0.66658,-1.95401 -0.83053,-5.10306 -0.36877,-7.08265 1.8399,-7.88769 10.87222,-12.08223 17.98682,-8.35295 2.58258,1.35373 4.46226,3.25475 5.65262,5.71683 0.89159,1.84414 1.2583,3.49741 1.25232,5.64614 -0.009,3.41799 -1.14978,6.16757 -3.62162,8.73292 -1.20341,1.24893 -1.77251,1.67533 -3.16679,2.37269 -0.93485,0.46758 -2.24453,0.97675 -2.91041,1.13147 -1.46835,0.34121 -4.57483,0.34101 -5.86717,-3.7e-4 z m 5.9921,-2.1421 c 1.87743,-0.56085 3.05554,-1.26941 4.48344,-2.69653 1.60557,-1.60469 2.52122,-3.34994 2.9804,-5.68074 0.25858,-1.31247 0.26903,-1.76112 0.0727,-3.11909 -0.78693,-5.44268 -4.92856,-9.16998 -10.37691,-9.3388 -5.06248,-0.15687 -9.71196,3.64463 -10.60831,8.67356 -0.3313,1.8587 -0.33005,2.46435 0.008,4.06191 0.95108,4.48987 4.58455,7.9048 9.03003,8.48689 1.35986,0.17806 3.00014,0.0341 4.4103,-0.3872 z m -4.334,-0.17366 c -6.26218,-0.94533 -10.14938,-7.06313 -8.2873,-13.04281 0.9363,-3.00676 3.54253,-5.60899 6.6292,-6.61903 1.75664,-0.57481 4.60339,-0.49274 6.41785,0.18503 3.57262,1.33452 5.98253,4.30871 6.53109,8.06034 0.95087,6.50302 -4.86751,12.38614 -11.29084,11.41647 z m 4.25529,-1.12233 c 1.43656,-0.44699 2.7141,-1.29588 3.93518,-2.61477 4.50578,-4.8668 2.5378,-12.81725 -3.73439,-15.0866 -1.51136,-0.54684 -3.75867,-0.67664 -5.22107,-0.30157 -2.06429,0.52945 -3.17872,1.16547 -4.57667,2.612 -3.48049,3.6014 -3.56954,9.14173 -0.20535,12.77547 2.61707,2.82673 6.11975,3.76133 9.8023,2.61547 z m -3.02637,-0.13913 c -1.87399,-0.10312 -2.42138,-0.23969 -2.42138,-0.60421 0,-0.30403 0.0765,-0.32617 0.60412,-0.17485 0.33226,0.0953 1.19194,0.17326 1.91038,0.17326 0.71845,0 1.57813,-0.078 1.91039,-0.17326 0.52153,-0.14957 0.60411,-0.12748 0.60411,0.16158 0,0.39449 -1.25572,0.69185 -2.60762,0.61748 z m -4.00457,-1.32565 c -1.38878,-0.6313 -1.38626,-0.64082 0.82637,-3.12784 1.10543,-1.2425 2.0911,-2.20518 2.19037,-2.13929 0.20638,0.13699 -1.7938,5.45853 -2.08544,5.54841 -0.10242,0.0315 -0.52153,-0.0951 -0.9313,-0.28128 z m 6.98435,0.11456 c -1.9e-4,-0.12806 -0.41929,-1.30677 -0.9313,-2.61936 -0.90647,-2.32381 -1.09288,-3.01794 -0.77633,-2.89082 0.085,0.0341 0.93913,0.94217 1.898,2.01781 0.95889,1.07565 1.85322,2.06648 1.9874,2.20186 0.39265,0.39612 0.29847,0.53155 -0.7239,1.04102 -1.07106,0.53373 -1.45331,0.59932 -1.45387,0.24949 z m -4.67515,-0.0726 -0.48469,-0.0865 0.8572,-2.22369 c 0.83116,-2.15613 0.87422,-2.22376 1.41708,-2.2254 0.62308,-0.002 0.58215,-0.0698 1.59696,2.65179 0.33407,0.89599 0.55488,1.68161 0.49067,1.74583 -0.14578,0.14577 -3.22056,0.25521 -3.87722,0.13799 z m -5.00879,-2.33014 c -0.30797,-0.42514 -0.55802,-0.90709 -0.55567,-1.07099 0.005,-0.35014 5.13559,-3.08517 5.29712,-2.82381 0.11071,0.17909 -0.3772,0.80904 -1.8802,2.42767 -0.52573,0.56618 -1.18277,1.30183 -1.46006,1.63477 -0.2773,0.33294 -0.58002,0.60534 -0.67271,0.60534 -0.0927,0 -0.42052,-0.34784 -0.72848,-0.77298 z m 10.87175,-1.3588 c -1.01165,-1.17248 -1.95439,-2.13637 -2.09498,-2.14198 -0.20383,-0.008 -0.20953,-0.0657 -0.0281,-0.28429 0.19519,-0.23519 0.59495,-0.0836 2.81669,1.06814 1.70553,0.88413 2.58923,1.4449 2.58923,1.64308 0,0.34747 -1.04053,1.84683 -1.28166,1.84683 -0.089,0 -0.98948,-0.9593 -2.00112,-2.13178 z M 150.33,202.4625 c -0.15076,-0.48096 -0.31541,-1.17081 -0.36588,-1.53302 -0.0774,-0.55528 -0.0362,-0.65855 0.26255,-0.65855 0.25835,0 0.35433,0.13254 0.35433,0.48925 0,0.2691 0.12483,0.90072 0.27738,1.4036 0.15256,0.50289 0.27828,0.92632 0.27939,0.94097 0.001,0.0147 -0.11851,0.0729 -0.26582,0.12942 -0.19061,0.0731 -0.34687,-0.14937 -0.54195,-0.77167 z m 16.10512,0.72436 c -0.21689,-0.1357 -0.20957,-0.30103 0.0466,-1.05277 0.16713,-0.49049 0.30387,-1.07664 0.30387,-1.30254 0,-0.244 0.14083,-0.44757 0.34692,-0.50147 0.31084,-0.0813 0.33693,-0.001 0.25087,0.76988 -0.13685,1.22608 -0.621,2.29164 -0.94822,2.0869 z m -14.91925,-0.75399 c -0.1072,-0.20028 -0.24706,-0.74471 -0.31081,-1.20984 l -0.11595,-0.84567 h 2.35354 c 1.29446,0 2.35356,0.064 2.35356,0.1422 0,0.0782 -0.91923,0.62265 -2.04275,1.20984 -1.94,1.01393 -2.05255,1.04931 -2.23763,0.70347 z m 12.06073,-0.72656 c -1.09904,-0.57726 -2.00008,-1.11243 -2.00228,-1.18926 -0.002,-0.0768 1.04369,-0.13969 2.32421,-0.13969 1.98337,0 2.32824,0.043 2.32824,0.29004 0,0.43016 -0.40018,1.94075 -0.53512,2.01993 -0.0642,0.0377 -1.016,-0.40377 -2.11505,-0.98102 z m -5.93431,-0.44999 c -0.75619,-0.50959 -1.01179,-1.14141 -0.83752,-2.0703 0.301,-1.60446 2.80947,-1.92638 3.56882,-0.45798 0.55008,1.06375 0.21159,2.12367 -0.8542,2.6748 -0.73798,0.38163 -1.13994,0.35026 -1.8771,-0.14652 z m 1.79449,-0.77737 c 0.52857,-0.52856 0.57585,-0.96684 0.16723,-1.55022 -0.59702,-0.85237 -2.13142,-0.27908 -2.13142,0.79635 0,0.52735 0.68377,1.12935 1.35885,1.19635 0.0815,0.008 0.35389,-0.19103 0.60534,-0.44248 z m -1.08426,-0.3129 c -0.39213,-0.21944 -0.41347,-0.59776 -0.0507,-0.89883 0.36684,-0.30445 1.03337,-0.0651 1.03337,0.3711 0,0.46342 -0.5601,0.76421 -0.98267,0.52773 z m -8.14403,-1.20886 c 0,-0.42261 0.0519,-1.02734 0.11514,-1.34386 0.11047,-0.55257 0.13462,-0.56563 0.60534,-0.32807 0.26964,0.13608 1.55891,0.64698 2.86505,1.13534 3.33657,1.24753 3.24635,1.45155 -0.60534,1.36891 l -2.98014,-0.064 z m 10.98928,0.62696 c 0,-0.29128 5.52676,-2.49631 5.73496,-2.28811 0.0635,0.0635 0.14862,0.63611 0.18913,1.27244 l 0.0737,1.15697 -2.99887,0.064 c -2.52106,0.0538 -2.99887,0.0211 -2.99887,-0.2053 z m -5.77458,-1.52709 c -0.56313,-0.23315 -1.83914,-0.73636 -2.83559,-1.11824 l -1.81172,-0.69432 0.25845,-0.49464 c 0.14215,-0.27205 0.50351,-0.72751 0.80303,-1.01215 l 0.54457,-0.51751 1.7527,1.54194 c 0.96399,0.84807 1.93891,1.70958 2.16651,1.91446 0.72779,0.65519 0.26744,0.85469 -0.87795,0.38046 z m 5.3385,0.1882 c -0.0453,-0.11813 0.88697,-1.07145 2.07176,-2.11849 l 2.15417,-1.90371 0.54308,0.51609 c 0.29869,0.28385 0.6605,0.74086 0.80404,1.01558 0.25998,0.49762 0.2573,0.50091 -0.7151,0.87334 -0.53684,0.20561 -1.83095,0.70192 -2.8758,1.1029 -1.27492,0.48928 -1.92683,0.65843 -1.98215,0.51429 z m -4.03384,-3.58247 c -1.09371,-2.95301 -1.09921,-2.8577 0.18596,-3.22417 1.36556,-0.38937 1.30382,-0.52065 1.30382,2.77226 0,3.95333 -0.17346,4.00594 -1.48978,0.45191 z m 2.6539,2.59502 c -0.17324,-0.0579 -0.23282,-0.83655 -0.23282,-3.04253 0,-2.74382 0.0252,-2.96462 0.33934,-2.96462 0.46115,0 2.08203,0.56242 2.08203,0.72243 0,0.15376 -0.50794,1.57569 -1.3444,3.7636 -0.38752,1.01363 -0.69656,1.5705 -0.84415,1.52112 z m -4.2858,-1.37843 c -0.79292,-0.73236 -1.46811,-1.3984 -1.50043,-1.48007 -0.0711,-0.17966 1.42037,-1.28606 1.73362,-1.28606 0.12211,0 0.51689,0.77531 0.87729,1.72289 0.36041,0.9476 0.71788,1.86959 0.79439,2.04886 0.30418,0.71273 -0.50956,0.28314 -1.90487,-1.00562 z m 5.75322,-0.20507 c 0.31532,-0.84515 0.67044,-1.80852 0.78914,-2.14082 l 0.21582,-0.60419 0.97564,0.59998 c 0.53659,0.32999 0.97563,0.69669 0.97563,0.8149 0,0.11821 -0.2724,0.42862 -0.60534,0.68982 -0.33294,0.26118 -1.02091,0.85784 -1.52882,1.32591 -1.35009,1.24418 -1.49651,1.12207 -0.82207,-0.6856 z m 2.96131,-2.1413 c -0.25331,-0.24291 -0.73525,-0.572 -1.07098,-0.73131 -0.5905,-0.28022 -0.84273,-0.806 -0.38665,-0.806 0.32808,0 2.17004,1.14962 2.27337,1.41887 0.18554,0.48352 -0.35341,0.56177 -0.81574,0.11844 z m -11.07075,0.16609 c -0.11977,-0.19377 0.4997,-0.78202 1.3802,-1.31064 0.77013,-0.46235 1.11755,-0.4976 1.11755,-0.11339 0,0.15367 -0.0744,0.27939 -0.16535,0.27939 -0.091,0 -0.59183,0.29336 -1.11307,0.65191 -1.03256,0.71027 -1.07443,0.72719 -1.21933,0.49272 z m -87.465408,10.12449 v -1.21112 h 38.176978 38.17696 l -0.0645,1.16412 -0.0645,1.16411 -38.1125,0.0471 -38.112518,0.0471 z m 76.843738,-0.23327 c 0.70874,-10.20755 5.1426,-16.34453 13.02629,-18.02989 1.82613,-0.39039 6.03562,-0.45012 7.63663,-0.10836 1.87386,0.4 3.88076,1.2283 5.02367,2.07339 0.20782,0.15366 0.92458,0.8242 1.59282,1.49008 2.13206,2.12455 3.50382,5.31847 4.16701,9.70227 0.097,0.64159 0.16042,3.28236 0.12806,5.33816 l -0.0154,0.97785 h -1.37741 -1.37741 l 0.39224,-1.16411 c 0.3311,-0.98271 0.39272,-1.61402 0.39537,-4.05114 0.004,-2.79649 -0.0153,-2.93534 -0.58658,-4.42797 -1.58289,-4.13606 -4.98658,-7.23145 -9.18053,-8.34898 -1.62865,-0.43398 -4.89084,-0.44351 -6.51906,-0.019 -5.18407,1.35142 -9.25976,6.03076 -9.85031,11.30922 -0.19985,1.78628 0.0228,4.07191 0.53976,5.54298 0.20355,0.57916 0.3701,1.07688 0.3701,1.10604 0,0.0292 -1.00473,0.053 -2.23273,0.053 h -2.23274 z m 32.11786,0.75291 c 0,-0.41112 0.0533,-1.13635 0.11844,-1.61164 l 0.11845,-0.86416 1.88384,-1.6e-4 c 2.70935,-1.8e-4 5.76529,-0.32693 7.02384,-0.7509 1.44587,-0.48708 2.03098,-0.48261 2.03098,0.0155 0,0.92811 -2.83419,2.70766 -5.34556,3.3564 -0.80204,0.20719 -2.43331,0.42619 -3.64145,0.48887 l -2.18854,0.11351 v -0.74747 z m -112.338406,0.35536 -0.862306,-0.0558 0.372417,-1.15482 c 0.435585,-1.35071 0.591039,-4.34492 0.30655,-5.90444 -0.955339,-5.23701 -4.90349,-9.42133 -10.019134,-10.61847 -1.151448,-0.26946 -3.767548,-0.34183 -5.139762,-0.14221 -4.105355,0.59724 -7.7202,3.28047 -9.67982,7.18514 -0.992051,1.97673 -1.294916,3.33418 -1.302713,5.83882 l -0.0068,2.17015 -1.024426,-0.10043 c -0.563434,-0.0552 -1.056577,-0.12802 -1.095874,-0.16171 -0.03929,-0.0337 0.02271,-1.05309 0.137803,-2.26533 0.323605,-3.40857 1.10435,-6.05151 2.475224,-8.37903 0.800263,-1.35872 3.125351,-3.68593 4.478719,-4.48282 3.460161,-2.0374 8.693268,-2.62548 13.18882,-1.48214 0.964529,0.24531 3.579716,1.52347 4.275212,2.08949 4.058264,3.30276 6.283125,8.49314 6.65605,15.52791 l 0.111649,2.10606 -1.00467,-0.0572 c -0.552569,-0.0314 -1.392709,-0.0823 -1.86698,-0.11304 z M 84.319313,201.914 c 10.525967,-0.0266 27.750287,-0.0266 38.276257,0 10.52597,0.0266 1.91381,0.0483 -19.13813,0.0483 -21.051934,0 -29.664091,-0.0217 -19.138127,-0.0483 z m -52.664766,-0.2065 c -0.924103,-0.30462 -2.45449,-1.24705 -3.282001,-2.02109 -1.365512,-1.27728 -1.9926,-2.77733 -2.339083,-5.5953 l -0.09733,-0.7916 h 3.113754 3.113754 l -0.124093,0.41908 c -0.24155,0.81575 -0.642797,3.23924 -0.771549,4.66007 -0.140159,1.5467 -0.317408,1.72421 -1.232587,1.23442 -0.292484,-0.15652 -0.419765,-0.14754 -0.534242,0.0377 -0.08265,0.13373 -0.11096,0.30677 -0.06291,0.38453 0.161226,0.26087 1.402124,0.39092 1.837453,0.19258 0.382768,-0.17441 0.444927,-0.3692 0.557256,-1.74631 0.31889,-3.90947 1.149399,-6.59466 2.819435,-9.11574 0.976635,-1.47433 2.953767,-3.36796 4.434722,-4.24743 1.339685,-0.79558 3.449202,-1.54967 5.512431,-1.97053 2.157653,-0.44012 7.279728,-0.30437 9.219827,0.24435 3.231316,0.91393 4.984453,1.90663 7.099201,4.01987 2.307622,2.30596 3.738602,4.98797 4.677952,8.76763 0.547911,2.20462 1.351337,3.82844 2.268114,4.58413 l 0.660952,0.54481 h -1.718772 c -1.654032,0 -1.719305,-0.0158 -1.73302,-0.41909 -0.0078,-0.23049 -0.0439,-0.58671 -0.08013,-0.79159 -0.03623,-0.20489 -0.117642,-0.70779 -0.180906,-1.11756 -0.972874,-6.3015 -4.113225,-11.24137 -8.517514,-13.39832 -2.520331,-1.2343 -3.887381,-1.50045 -7.597999,-1.47919 -2.4878,0.0142 -3.344683,0.0912 -4.497949,0.40383 -4.63495,1.25656 -7.649869,3.87696 -9.61502,8.35684 -1.008326,2.29864 -1.656949,5.48734 -1.708366,8.39852 -0.009,0.50615 -0.07936,0.60229 -0.429775,0.58677 -0.230496,-0.0105 -0.586717,-0.0738 -0.791602,-0.14137 z m 37.624347,-0.61529 c -1.18788,-0.6541 -2.322259,-2.16496 -2.778186,-3.70023 -0.537368,-1.80951 -0.652661,-1.72477 2.172844,-1.59712 1.357363,0.0613 5.066249,0.1939 8.241971,0.29462 8.843595,0.28048 11.334717,0.36811 14.025757,0.49335 l 2.47768,0.11526 -0.0918,0.48922 c -0.0505,0.26909 -0.1439,1.15977 -0.20764,1.97931 -0.0638,0.81954 -0.15822,1.63674 -0.20995,1.81602 -0.0883,0.30601 -0.80277,0.32561 -11.676125,0.32029 -8.07178,-0.004 -11.694985,-0.0678 -11.9546,-0.21078 z m 24.426956,-1.9721 c 0.1269,-1.2037 0.23561,-2.26035 0.24156,-2.34812 0.009,-0.14593 1.67903,-0.11269 8.20622,0.16354 1.28053,0.0542 5.01037,0.18192 8.28853,0.28385 19.75395,0.61418 28.27603,0.92591 28.39309,1.03863 0.12235,0.11782 -0.68597,1.70924 -1.23133,2.42422 l -0.47778,0.62642 H 115.30063 93.47512 Z m 44.77305,1.31291 c 0.91357,-1.44055 1.28234,-2.71013 1.5735,-5.41716 0.40345,-3.75088 0.84313,-9.56142 0.84313,-11.14201 0,-0.97904 0.0674,-1.37667 0.23283,-1.37493 0.69528,0.007 4.93971,0.99615 6.98721,1.62784 1.64976,0.50898 1.65249,0.51856 0.32346,1.13379 -1.66712,0.77173 -4.56251,3.68428 -5.9045,5.93948 -1.00802,1.69399 -1.22581,2.28574 -0.84125,2.28574 0.14523,0 0.54902,-0.56472 0.89728,-1.25492 1.05803,-2.09686 3.22718,-4.48516 5.44367,-5.99367 1.5185,-1.03346 3.95896,-2.06811 5.95357,-2.52405 3.45867,-0.79062 8.62837,-0.50614 11.57451,0.63692 l 0.54623,0.21192 -0.45989,0.45988 -0.45988,0.45988 -1.48328,-0.39863 c -2.00598,-0.53911 -6.33889,-0.59116 -8.63111,-0.10369 -4.37699,0.93084 -7.609,3.04278 -9.83926,6.42939 -1.65029,2.50595 -2.96667,6.02171 -3.32325,8.87564 l -0.12797,1.0242 h -1.93016 -1.93015 z m 35.74755,0.0167 c -0.0272,-2.6187 -0.83289,-5.91112 -2.06874,-8.45402 -0.82218,-1.69172 -1.1672,-2.17155 -2.55598,-3.55462 -1.10468,-1.10014 -1.95727,-1.76708 -2.73319,-2.13808 l -1.12771,-0.53919 0.535,-0.45017 0.535,-0.45018 0.77897,0.42792 c 1.51839,0.83413 3.06836,2.04451 4.16357,3.25133 1.75592,1.9349 3.22823,4.97575 3.51311,7.25592 0.0874,0.6991 0.21442,1.0398 0.38784,1.0398 0.32496,0 0.32214,-0.50465 -0.0117,-2.07924 -0.44337,-2.0919 -1.84228,-4.78563 -3.35624,-6.46275 l -0.56508,-0.62598 1.21068,0.12087 c 0.66588,0.0665 1.71359,0.19638 2.32825,0.28866 0.61465,0.0922 1.43145,0.21427 1.81511,0.27112 0.38365,0.0569 2.01807,0.36359 3.63205,0.68166 3.32944,0.65616 3.31506,0.65316 4.70396,0.98032 l 1.02443,0.2413 v 2.31416 2.31416 l -1.35064,0.1051 c -1.16455,0.0906 -1.42936,0.18042 -1.9222,0.65191 -1.02312,0.97881 -1.80671,2.6457 -2.12257,4.51519 -0.10755,0.63689 -0.0789,0.78124 0.15534,0.78124 0.17895,0 0.33186,-0.23744 0.40542,-0.62956 l 0.1181,-0.62955 0.8682,0.48539 0.86819,0.48539 -1.02442,0.24736 c -0.56343,0.13605 -2.6379,0.29636 -4.60992,0.35624 l -3.58548,0.10883 -0.009,-0.91054 z m 8.25143,-0.94302 c -0.44715,-0.31192 -0.56342,-1.067 -0.19898,-1.29223 0.12105,-0.0749 0.53536,-0.14395 0.92068,-0.15363 0.62985,-0.0158 0.67345,0.0124 0.43181,0.27939 -0.14782,0.16335 -0.26878,0.5628 -0.26878,0.88767 0,0.65671 -0.23625,0.73115 -0.88473,0.2788 z m -50.80217,-2.13588 c -8.46812,-0.30189 -10.02541,-0.35561 -15.27326,-0.52692 -3.07327,-0.10031 -6.88693,-0.22955 -8.47478,-0.28715 -5.43738,-0.19727 -13.1311,-0.45865 -13.56981,-0.461 -0.41045,-0.002 -0.43197,-0.0559 -0.33603,-0.83931 0.0564,-0.46032 0.15709,-1.78043 0.22381,-2.93357 0.0667,-1.15316 0.14943,-2.34808 0.18377,-2.65541 0.0343,-0.30733 0.0681,-0.8809 0.0751,-1.27461 l 0.0126,-0.71581 1.44352,0.11421 c 8.67618,0.68657 15.10675,0.90648 23.20767,0.79364 4.01074,-0.0558 7.52275,-0.15923 7.80447,-0.2297 0.82688,-0.20683 0.64006,-0.64223 -0.27939,-0.65115 -0.43538,-0.005 -1.2526,-0.0473 -1.81603,-0.0957 -0.93168,-0.0801 -18.53229,-1.01447 -24.58621,-1.30521 -1.38296,-0.0665 -2.80784,-0.14464 -3.1664,-0.17382 -0.35855,-0.0292 -1.07098,-0.0624 -1.58319,-0.0737 l -0.93131,-0.0205 -0.009,-3.58532 c -0.006,-1.97191 -0.0692,-4.19725 -0.14188,-4.94519 l -0.13198,-1.35987 1.16629,0.1135 c 1.79793,0.17496 1.9165,0.22333 2.29872,0.93748 0.78341,1.46378 2.80541,2.24921 5.37724,2.08876 1.67993,-0.10487 2.45211,-0.41113 3.11286,-1.23488 l 0.43548,-0.54289 4.47022,0.53137 c 2.45862,0.29224 5.05693,0.61517 5.77403,0.7176 0.7171,0.10242 1.7229,0.23437 2.23511,0.29319 0.51221,0.0589 1.18275,0.14459 1.49008,0.19059 0.30731,0.046 0.85213,0.12238 1.21068,0.16972 5.52529,0.7296 15.27531,2.24984 17.48759,2.72671 l 1.00368,0.21635 -0.13192,3.0559 c -0.0725,1.68076 -0.16147,3.24288 -0.19757,3.47139 -0.0361,0.22852 -0.11665,1.12792 -0.17894,1.99868 -0.0624,0.87077 -0.14939,1.83466 -0.19352,2.14199 -0.0441,0.30733 -0.12835,1.1874 -0.18718,1.95572 -0.0589,0.76832 -0.15629,1.67502 -0.2166,2.0149 l -0.10965,0.61795 -2.07232,-0.0592 c -1.13978,-0.0326 -3.58102,-0.11293 -5.42498,-0.17869 z m 51.09953,-0.39269 c 0.20927,-0.33294 0.63659,-0.80468 0.94958,-1.0483 l 0.5691,-0.44296 v 1.04831 1.04829 h -0.9496 -0.94958 z m -95.242947,-1.09389 c -1.536646,-0.0639 -4.805492,-0.17272 -7.264115,-0.24196 -2.458611,-0.0693 -5.140748,-0.15947 -5.960288,-0.20049 -0.819539,-0.041 -3.061634,-0.12984 -4.982432,-0.19733 -2.822783,-0.0991 -3.492359,-0.17309 -3.492359,-0.38533 0,-0.53882 -1.28898,-3.4827 -2.165571,-4.94591 -1.289433,-2.15231 -4.063325,-4.88098 -5.601487,-5.51015 -2.640936,-1.08026 -4.186707,-4.52148 -4.465641,-9.94148 l -0.114276,-2.22051 0.725408,0.0894 c 0.398975,0.0492 1.134597,0.10989 1.634718,0.13479 0.828632,0.0413 0.931312,0.098 1.157305,0.6389 0.583872,1.39741 2.629204,2.35826 5.011233,2.35418 1.691753,-0.002 2.804353,-0.35813 3.335035,-1.0648 0.189602,-0.25248 0.440661,-0.59024 0.557908,-0.75058 0.192607,-0.26341 0.697963,-0.24584 5.237963,0.18219 2.763635,0.26055 5.401964,0.51328 5.862958,0.56162 0.460994,0.0483 3.394565,0.34131 6.519065,0.65105 3.124499,0.30973 6.016173,0.60223 6.425943,0.64999 0.40978,0.0478 1.42802,0.14417 2.26277,0.21424 l 1.51773,0.1274 0.11047,1.13809 c 0.40117,4.13168 0.32754,8.91924 -0.13499,8.77761 -0.1194,-0.0366 -1.39052,-0.11491 -2.82472,-0.174 -1.43419,-0.0591 -5.625028,-0.27088 -9.312957,-0.47053 -6.124628,-0.33158 -11.118739,-0.58233 -12.740912,-0.63973 -0.348736,-0.0124 -0.669005,0.0792 -0.711703,0.20351 -0.08653,0.25184 0.302715,0.36069 1.811417,0.50654 0.563434,0.0544 2.952208,0.30378 5.308387,0.55403 2.356179,0.25024 4.870679,0.5077 5.587773,0.57213 0.717094,0.0645 1.597171,0.14815 1.955718,0.18605 0.358547,0.038 1.280535,0.12144 2.048859,0.18565 0.768311,0.0642 1.690299,0.14951 2.048846,0.18957 1.087681,0.1215 2.801292,0.26652 4.470222,0.37832 2.1828,0.14622 2.60817,0.24679 2.60475,0.61578 -0.006,0.66392 -0.36954,5.95551 -0.47962,6.98406 l -0.11619,1.08512 -1.51671,-0.0607 c -0.83419,-0.0334 -2.77396,-0.11293 -4.3106,-0.17674 z M 26.159902,192.4986 c 0,-0.60204 0.440282,-0.68916 3.483046,-0.68916 1.669814,0 3.036025,0.0474 3.036025,0.10533 0,0.0579 -0.08676,0.2675 -0.192813,0.46566 -0.178643,0.33379 -0.418184,0.36026 -3.259535,0.36026 -2.392112,0 -3.066723,-0.0532 -3.066723,-0.24213 z m 0.745037,-3.94868 v -2.70076 h 5.012863 5.012863 l -1.036238,1.06137 c -1.062085,1.08786 -2.225834,2.74122 -2.649659,3.76442 l -0.238472,0.57572 h -3.050678 -3.050679 z m 156.550811,0.45536 c -3.34342,-0.73436 -8.6063,-1.61546 -10.60806,-1.77597 -1.59215,-0.12767 -1.71016,-0.16833 -2.60763,-0.89872 -0.51701,-0.42076 -1.3591,-1.00683 -1.87131,-1.30239 -0.51221,-0.29555 -0.96945,-0.57024 -1.01606,-0.61042 -0.0466,-0.0402 0.49817,-0.61414 1.21068,-1.2755 0.85266,-0.79145 1.39095,-1.16206 1.57484,-1.08427 1.80349,0.76294 4.66843,1.65448 10.04204,3.12495 3.3673,0.92145 3.3523,0.91231 5.45185,3.32039 1.09712,1.25832 1.18017,1.23917 -2.17635,0.50193 z m -69.66093,-0.86794 c -3.09465,-0.0951 -11.44837,-0.45083 -12.38623,-0.5275 -1.83,-0.1496 -6.23096,-0.45534 -6.56563,-0.45611 -0.17927,-3.8e-4 -0.32595,-0.13512 -0.32595,-0.29933 0,-0.26554 0.29373,-0.2854 2.65419,-0.17948 1.45981,0.0655 3.15709,0.15818 3.77175,0.20591 0.61465,0.0478 2.8358,0.17109 4.93586,0.2741 2.10008,0.10299 4.69839,0.23067 5.77404,0.28367 1.07564,0.053 2.33289,0.13395 2.79388,0.1799 0.461,0.0459 2.26305,0.1371 4.00458,0.20256 1.74152,0.0655 3.19759,0.14773 3.23572,0.18281 0.088,0.0811 -6.15904,0.18672 -7.89221,0.13347 z m 69.56779,-2.80443 c -3.96063,-3.97743 -8.71755,-7.5656 -12.92352,-9.74829 -2.01563,-1.04603 -5.29914,-2.27008 -6.63369,-2.47296 -0.35854,-0.0545 -1.32243,-0.39816 -2.14197,-0.76366 -1.41852,-0.63262 -1.2694,-0.74442 0.37251,-0.27928 1.37432,0.38932 4.83882,1.4969 5.21526,1.66727 0.20488,0.0927 1.2945,0.56146 2.42137,1.04163 5.37058,2.28844 10.07645,5.54409 13.14935,9.09704 1.13705,1.31469 2.80396,3.57548 2.53888,3.44342 -0.0234,-0.0117 -0.92254,-0.90497 -1.99819,-1.98517 z m -93.22268,1.43794 c -2.048867,-0.17411 -4.437635,-0.37678 -5.308393,-0.45041 -0.870771,-0.0736 -2.128021,-0.20362 -2.793897,-0.28889 -1.416847,-0.18145 0.676433,-0.11827 6.146552,0.1855 1.792748,0.0996 3.791418,0.19727 4.441488,0.21715 0.80471,0.0246 1.21332,0.11792 1.28025,0.29236 0.0541,0.14091 0.067,0.27976 0.0287,0.30853 -0.0383,0.0287 -1.7459,-0.0901 -3.79476,-0.26424 z m -10.931091,-1.04893 c 0.134444,-0.0538 0.295103,-0.0472 0.356994,0.0147 0.06189,0.0619 -0.04811,0.10592 -0.244469,0.0979 -0.21698,-0.009 -0.26111,-0.053 -0.112571,-0.11257 z m -52.3039,-1.99951 c 0,-0.86238 0.05353,-1.70746 0.118952,-1.87796 0.115911,-0.30205 3.336118,-2.94527 9.925654,-8.14719 2.708006,-2.13776 3.349687,-2.56258 3.870723,-2.56258 0.659592,0 0.701953,0.0558 0.886947,1.16811 0.129437,0.77826 0.984659,1.86909 1.793186,2.28719 0.659695,0.34115 2.227486,0.3482 3.028226,0.0137 0.739344,-0.30892 1.736518,-1.46977 1.899344,-2.21111 l 0.118166,-0.53801 1.705327,0.13125 c 0.937933,0.0722 1.831054,0.15526 1.984719,0.18462 0.153663,0.0293 0.384159,0.0598 0.512211,0.0676 0.161696,0.009 0.233292,0.39835 0.234352,1.2715 0.002,1.66437 0.296555,4.15632 0.65493,5.54121 0.328261,1.2685 1.257993,3.35852 1.728993,3.88673 0.299023,0.33535 0.296069,0.34802 -0.05721,0.24554 -2.487938,-0.72178 -2.844025,-0.76332 -6.6122,-0.77141 -3.415412,-0.007 -3.995195,0.0377 -5.494644,0.42702 -1.775522,0.46097 -4.062369,1.43216 -4.872168,2.06915 -0.465664,0.3663 -0.720233,0.38266 -5.955982,0.38266 h -5.469526 z m 152.732491,0.71166 c -2.76603,-0.7656 -2.96292,-0.84226 -1.86259,-0.72524 2.77037,0.29461 3.70318,0.50969 4.11586,0.94897 0.51903,0.55248 0.56903,0.55744 -2.25327,-0.22373 z m -29.86713,-0.38729 c -0.44998,-0.23577 -5.4904,-1.59451 -6.64449,-1.79115 -0.25345,-0.0432 -0.80685,-0.14146 -1.22976,-0.21839 l -0.76896,-0.1399 -0.12302,-2.07523 c -0.20022,-3.37721 -0.26779,-3.67559 -0.98654,-4.35691 -0.75655,-0.71715 -0.84107,-0.7005 2.18182,-0.43007 1.07564,0.0962 2.62625,0.22312 3.44578,0.28198 0.81954,0.0588 1.78344,0.14412 2.14199,0.18946 0.35855,0.0453 1.40625,0.13321 2.32824,0.1953 0.92198,0.0621 2.0116,0.14664 2.42136,0.18787 0.40978,0.0412 1.79275,0.16744 3.07328,0.28046 1.28054,0.11304 3.92076,0.36339 5.86717,0.55639 l 3.53892,0.3509 0.73105,0.89347 c 0.40208,0.49141 1.36598,1.51487 2.14199,2.27434 l 1.41091,1.38085 -1.3038,1.25579 -1.30382,1.25581 -1.5832,-0.52707 c -2.16277,-0.72001 -3.12613,-0.83666 -6.79846,-0.82318 -3.30443,0.0121 -5.36675,0.34893 -7.27871,1.18871 -0.67077,0.29461 -0.81837,0.30287 -1.26175,0.0705 z m 28.7535,-0.7217 c -0.8686,-0.13543 -1.60914,-0.33584 -1.64564,-0.44538 -0.13253,-0.39757 -1.76956,-2.50506 -3.16735,-4.07759 l -1.43061,-1.60947 2.14197,1.4675 c 2.0149,1.38044 5.80593,4.36718 6.05525,4.77059 0.1334,0.21585 0.0948,0.21376 -1.95362,-0.10568 z m -3.0772,-0.40214 c -1.4896,-0.20396 -1.9239,-0.44055 -3.10302,-1.69047 -1.19982,-1.27188 -2.59918,-3.64496 -2.85167,-4.83597 -0.14768,-0.6966 -0.16066,-0.69004 0.67482,-0.34095 0.68585,0.28657 2.10163,1.71259 4.17562,4.20583 1.70648,2.05145 2.22427,2.80187 1.90854,2.76598 -0.13503,-0.0153 -0.49696,-0.0624 -0.80429,-0.10439 z m -3.44579,-0.73305 c -1.19056,-0.38748 -2.68706,-1.34925 -3.79461,-2.43874 -1.17372,-1.15459 -4.05466,-4.79559 -4.56092,-5.76422 l -0.21287,-0.40727 1.35061,0.37396 c 0.74285,0.20567 1.91961,0.60096 2.61505,0.87839 l 1.26442,0.50443 0.51969,1.50085 c 0.60101,1.73564 1.6256,3.50578 2.6565,4.58948 0.88633,0.93173 0.90165,1.0038 0.16213,0.76312 z m -35.29611,-1.13227 c -6.14918,-1.05732 -19.64237,-2.94011 -26.32881,-3.67386 -1.39143,-0.15268 -3.63281,-0.47521 -3.65514,-0.52595 -0.38118,-0.86615 -0.88305,-1.54013 -1.40307,-1.88427 -1.66444,-1.10148 -4.58906,-1.37514 -6.28044,-0.58767 -0.5594,0.26045 -1.11471,0.68313 -1.30382,0.99243 -0.18117,0.29632 -0.41321,0.51663 -0.51566,0.48957 -0.10241,-0.0271 -0.8219,-0.10311 -1.59879,-0.16907 l -1.41254,-0.11988 -0.3297,-2.23382 c -0.18133,-1.2286 -0.30005,-2.25785 -0.26379,-2.28722 0.0362,-0.0293 4.29864,0.30038 9.47198,0.73278 5.17335,0.43239 10.07662,0.84063 10.89616,0.90719 0.81954,0.0666 2.95687,0.24483 4.74961,0.39615 1.79275,0.1513 6.81622,0.57074 11.16326,0.93205 l 7.90373,0.65693 1.12888,0.71378 c 1.05079,0.66439 1.13904,0.77436 1.27572,1.58968 0.0808,0.48174 0.12311,1.73175 0.0941,2.77779 l -0.0528,1.90187 z m -109.050138,-5.68554 0.0046,-4.88931 0.78931,-1.30382 0.789309,-1.3038 1.706471,-0.35141 1.706471,-0.3514 3.461153,1.83602 3.461153,1.83601 -0.42031,0.39461 c -0.633631,0.59487 -11.282205,9.0224 -11.400232,9.0224 -0.05637,0 -0.100439,-2.20019 -0.09791,-4.8893 z m 3.049212,1.82486 c 0.70096,-0.55859 1.556548,-1.20816 1.901308,-1.44352 1.202413,-0.82083 1.041196,-0.89356 -1.980807,-0.89356 h -2.78804 v 1.67634 1.67633 h 0.796532 c 0.684657,0 0.975535,-0.14264 2.071007,-1.01559 z M 28.395012,176.443 v -1.21069 h 1.992973 c 1.152463,0 1.918348,0.0689 1.816026,0.16333 -0.956683,0.88306 -3.004264,2.25804 -3.3626,2.25804 -0.425242,0 -0.446399,-0.0573 -0.446399,-1.21068 z m 6.988177,-3.35779 c 1.022523,-0.77114 1.886233,-1.52549 1.919355,-1.67634 0.0518,-0.23593 -0.605494,-0.27426 -4.703044,-0.27426 h -4.763265 v 1.67634 1.67633 h 2.843912 2.843911 z m -6.988177,-0.18113 v -1.2107 h 3.948694 c 2.273226,0 3.873614,0.0693 3.771748,0.16334 -0.09732,0.0898 -0.793279,0.63464 -1.546574,1.21068 l -1.369628,1.04736 h -2.40212 -2.40212 z m 72.454798,5.69298 c -0.80963,-0.24717 -1.94204,-0.88852 -2.32823,-1.3186 l -0.37252,-0.41486 0.93129,0.11549 c 0.51223,0.0635 2.22834,0.24616 3.8136,0.40585 1.58527,0.15969 2.908,0.31604 2.9394,0.34745 0.0981,0.0981 -0.76344,0.59463 -1.42584,0.82175 -0.69919,0.23974 -2.82884,0.26544 -3.5577,0.043 z m 4.26844,-1.57363 c -0.0426,-0.0393 -0.66432,-0.11642 -1.38142,-0.17129 -3.60861,-0.27623 -5.6809,-0.56527 -5.6809,-0.79239 0,-0.34934 1.01067,-1.13579 1.79022,-1.39307 0.98282,-0.32435 3.12997,-0.1373 4.31407,0.37583 1.49558,0.64813 2.50154,2.0524 1.47024,2.0524 -0.23902,0 -0.46953,-0.0322 -0.51221,-0.0715 z m 54.49632,-1.05676 c -1.74152,-0.18415 -3.21836,-0.3409 -3.28188,-0.34834 -0.0635,-0.007 -0.1561,-0.37402 -0.20577,-0.81466 -0.13828,-1.22691 -1.02743,-3.01863 -1.89252,-3.81364 -0.76822,-0.70597 -4.25937,-2.98035 -6.35415,-4.13953 -4.63925,-2.56721 -4.84744,-2.67316 -10.2013,-5.19176 -0.89835,-0.42261 -1.74071,-0.76838 -1.87189,-0.76838 -0.1312,0 -0.31817,-0.0773 -0.41549,-0.17185 -0.40624,-0.39455 -7.72601,-3.11579 -11.53875,-4.28972 -1.02443,-0.31541 -2.53312,-0.78 -3.35266,-1.03242 -1.54542,-0.47598 -2.15467,-0.63387 -6.51908,-1.68948 -3.01989,-0.73041 -2.53236,-0.63025 -7.07785,-1.45408 -5.99889,-1.08725 -5.92672,-1.0845 -26.169398,-0.99423 -15.72459,0.0701 -18.772682,0.12661 -20.115989,0.37284 -0.87076,0.15959 -1.918469,0.34512 -2.328238,0.41226 -2.734525,0.44809 -13.243603,2.87129 -15.412945,3.55395 -0.2849,0.0897 -0.325953,0.36506 -0.325953,2.18667 0,2.34787 0.1466,3.03942 0.863682,4.07417 0.544008,0.78501 2.643893,2.27508 3.979055,2.82354 0.460992,0.18936 0.972158,0.41229 1.135924,0.4954 0.515029,0.26137 5.223198,1.67324 5.579761,1.67324 0.187098,0 0.388563,0.0782 0.447702,0.17397 0.05913,0.0956 -0.229273,1.01936 -0.640916,2.0526 -0.41164,1.03324 -0.748437,2.05409 -0.748437,2.26855 0,0.35149 -0.07801,0.37927 -0.791602,0.28193 -0.43538,-0.0594 -1.468252,-0.16225 -2.295271,-0.22858 l -1.50367,-0.1206 -0.228614,-0.85476 c -0.807766,-3.02014 -4.967558,-3.33111 -6.442096,-0.48159 -0.365439,0.70621 -0.408385,0.73027 -1.12498,0.63008 -0.57574,-0.0805 -6.069307,-2.78401 -7.499631,-3.69075 -0.444611,-0.28186 4.938163,-12.67132 5.849316,-13.46331 0.500629,-0.43514 4.738104,-1.32675 9.100681,-1.91488 5.698354,-0.76819 5.623014,-0.75856 8.940439,-1.14318 4.557686,-0.52841 5.620406,-0.5522 24.679333,-0.5522 14.518697,0 19.559997,0.0579 21.047287,0.24172 5.10968,0.63151 11.65115,1.96264 16.29767,3.31644 4.02057,1.17142 11.38683,3.77914 13.64857,4.83171 0.54062,0.25159 1.02997,0.45744 1.08743,0.45744 0.0575,0 0.66284,0.25951 1.34529,0.57667 0.68245,0.31718 1.57607,0.70919 1.98585,0.87116 2.77263,1.09594 12.34001,6.2587 17.3221,9.34739 1.51103,0.93677 3.75341,2.11112 5.33218,2.79251 l 2.72457,1.17591 0.94727,1.46549 0.94727,1.4655 -0.87794,-0.0242 c -0.48288,-0.0133 -2.30283,-0.17486 -4.04436,-0.35902 z m -4.76512,-0.43174 c -0.0427,-0.0384 -0.95769,-0.12501 -2.03333,-0.19238 -1.07565,-0.0674 -3.25488,-0.23928 -4.84274,-0.38205 -1.58786,-0.14276 -3.51564,-0.30851 -4.28397,-0.36833 -5.42066,-0.42206 -5.56543,-0.44906 -6.78156,-1.26449 -0.62394,-0.41837 -1.16386,-0.78409 -1.19982,-0.81272 -0.036,-0.0286 0.15263,-0.33789 0.41908,-0.68723 0.26645,-0.34933 0.48446,-0.72706 0.48446,-0.8394 0,-0.35353 0.38787,-0.46168 0.61774,-0.17226 0.12124,0.15265 0.91996,0.83158 1.77493,1.50873 l 1.5545,1.23117 h 3.70731 3.70733 v -0.50031 c 0,-0.7935 -0.56678,-2.8654 -1.04322,-3.81347 -0.47868,-0.9526 -0.82519,-1.19423 -4.82395,-3.36397 -2.91323,-1.58073 -8.97529,-4.61535 -9.2198,-4.61535 -0.19442,0 -0.16782,0.29185 0.26743,2.93358 l 0.22249,1.35038 h -0.68563 -0.68563 l -0.22266,-2.3748 c -0.12247,-1.30614 -0.27015,-2.65461 -0.3282,-2.9966 -0.0954,-0.56243 -0.0722,-0.60452 0.24425,-0.44081 0.32401,0.16765 0.71814,0.33555 1.79327,0.76394 0.2305,0.0918 0.90331,0.3852 1.49517,0.65191 0.59184,0.26671 1.11359,0.48493 1.15945,0.48493 0.38592,0 8.43873,4.02301 10.98886,5.48979 3.6377,2.09235 6.62678,4.05353 7.0608,4.63272 0.70276,0.93785 1.22562,2.10321 1.34966,3.00816 0.10265,0.74915 0.0758,0.83876 -0.25182,0.83876 -0.20174,0 -0.40172,-0.0314 -0.4444,-0.0699 z m -63.21946,-0.21511 c -0.10241,-0.0381 -2.78457,-0.3257 -5.960298,-0.63903 -3.175717,-0.31333 -6.1512,-0.60948 -6.612194,-0.65808 -0.460994,-0.0486 -3.562206,-0.34534 -6.891587,-0.65942 -4.89083,-0.46136 -6.089195,-0.62769 -6.239681,-0.86603 -0.943457,-1.49426 -2.362438,-2.26892 -4.44457,-2.42639 -2.127021,-0.16086 -4.158975,0.56105 -4.48685,1.5941 -0.08836,0.27841 -0.260193,0.33194 -0.897321,0.27953 -1.810937,-0.14897 -2.371233,-0.27662 -2.371233,-0.54024 0,-0.14646 0.350023,-1.1557 0.777829,-2.24274 l 0.777831,-1.97645 0.572547,0.0972 c 0.314903,0.0535 1.536441,0.26542 2.71453,0.4711 3.153346,0.55049 6.482443,0.92899 10.89616,1.23883 0.921982,0.0647 1.96969,0.15327 2.328239,0.19677 0.358549,0.0436 1.741523,0.16167 3.073275,0.26262 2.075073,0.15729 9.090293,0.73509 12.38623,1.02019 0.563441,0.0487 1.653048,0.13877 2.421373,0.20009 2.25503,0.17997 3.22878,0.27655 3.27264,0.32461 0.0429,0.047 0.63881,4.0449 0.63881,4.28516 0,0.13724 -1.60545,0.16863 -1.95573,0.0382 z m -30.390495,-0.46986 c -1.576485,-0.16035 -3.966497,-1.36389 -3.545164,-1.78521 0.08987,-0.0899 2.026977,0.0708 6.82417,0.56584 1.071773,0.11059 0.35559,0.7849 -1.1999,1.1297 -0.516213,0.11444 -1.44288,0.1544 -2.079106,0.0897 z m -17.130134,-0.56537 c -0.822808,-0.23849 -1.863461,-1.45293 -2.015339,-2.35189 -0.245832,-1.45508 0.790242,-2.99399 2.287054,-3.39704 2.024707,-0.5452 4.110161,1.5285 3.566736,3.54662 -0.253307,0.94072 -0.853757,1.64455 -1.750413,2.05179 -0.832596,0.37814 -1.209123,0.40529 -2.088038,0.15052 z m 87.845729,-0.64518 c -1.48541,-0.13259 -3.37129,-0.29262 -4.19083,-0.35563 -0.81954,-0.0631 -1.86725,-0.15147 -2.32824,-0.19658 -0.97941,-0.0959 -1.28043,-0.12113 -8.75418,-0.73586 -3.12449,-0.257 -6.1419,-0.5068 -6.70533,-0.55511 -0.56344,-0.0483 -2.15595,-0.17584 -3.53892,-0.28342 -1.38298,-0.10755 -2.89167,-0.2339 -3.35267,-0.28072 -0.46099,-0.0468 -2.43067,-0.21348 -4.37708,-0.37031 -4.84752,-0.3906 -5.30839,-0.45736 -5.30839,-0.76907 0,-0.3227 -0.0893,-0.32311 4.10196,0.019 1.89285,0.15451 5.07596,0.4073 7.07359,0.56176 1.99763,0.15445 4.05114,0.32186 4.56335,0.372 0.74459,0.0729 8.56808,0.70974 18.16027,1.47826 0.66587,0.0534 2.17456,0.18585 3.35265,0.29443 1.17809,0.1086 2.68679,0.17588 3.35267,0.14955 1.05377,-0.0417 1.30682,0.0175 1.95239,0.45645 l 0.74171,0.50433 -1.0211,-0.024 c -0.5616,-0.0132 -2.23643,-0.1325 -3.72185,-0.26508 z m -68.45023,-0.65197 c -1.25428,-0.14147 -2.070926,-0.22371 -4.796173,-0.48292 -0.691486,-0.0658 -1.257249,-0.18451 -1.257249,-0.26387 0,-0.77846 1.270045,-1.48884 2.89499,-1.61928 1.913502,-0.15359 4.14501,0.69955 4.820421,1.84293 0.480271,0.81304 0.593147,0.7775 -1.661989,0.52314 z m 76.07752,-0.94498 c -1.77017,-1.4068 -2.59829,-2.24438 -2.59829,-2.62797 0,-0.77106 -0.64176,-1.79395 -1.84229,-2.93636 l -1.27227,-1.21068 -0.22815,-1.45859 c -0.12548,-0.80222 -0.1845,-1.50223 -0.13115,-1.55558 0.11855,-0.11855 7.37932,3.58131 10.39703,5.298 2.12808,1.21061 2.2033,1.27534 2.64415,2.27501 0.36023,0.81684 0.8632,2.61554 0.8632,3.08695 0,0.0461 -1.49195,0.084 -3.31544,0.084 h -3.31543 z m -8.63287,-0.0549 c -1.27991,-0.53746 -1.34874,-0.59502 -1.51453,-1.26649 l -0.12512,-0.50668 2.48673,-0.0521 2.48675,-0.0521 v -0.93131 -0.93129 l -2.46795,-0.052 -2.46793,-0.052 v -0.54299 c 0,-0.29864 0.19054,-0.76448 0.4234,-1.03521 0.40217,-0.46756 0.51167,-0.49223 2.18384,-0.49223 h 1.76043 l 0.95525,0.73912 c 1.90811,1.47638 2.21647,3.2697 0.81972,4.76708 -0.68709,0.73661 -0.74259,0.75836 -2.07393,0.81318 -1.12007,0.0461 -1.56705,-0.0273 -2.46666,-0.40505 z m -7.18982,-0.29865 c -2.10007,-0.18253 -4.65485,-0.38892 -5.67729,-0.45863 -1.02242,-0.0697 -1.9025,-0.15155 -1.95571,-0.18184 -0.0532,-0.0302 -1.06065,-0.11433 -2.23874,-0.18666 -1.17809,-0.0724 -2.39343,-0.16272 -2.70076,-0.20078 -0.30732,-0.0381 -2.69609,-0.23805 -5.30838,-0.44444 -6.40503,-0.50602 -9.1845,-0.75401 -9.25636,-0.82585 -0.10229,-0.1023 -2.85047,-15.89452 -2.85047,-16.38017 0,-0.2865 0.35758,-0.31558 3.88075,-0.31558 4.18759,0 5.0883,0.12459 12.13753,1.6789 1.48542,0.32752 2.84674,0.62363 3.02517,0.658 2.20834,0.42538 10.26334,2.69422 13.73104,3.8676 2.69344,0.91139 2.48463,0.59708 2.70196,4.06697 0.0705,1.1254 0.16704,2.26064 0.21457,2.52276 0.0496,0.27335 -0.0328,0.60836 -0.19313,0.78552 -0.2145,0.23702 -0.28581,0.86271 -0.3064,2.68828 -0.0229,2.03307 0.0208,2.43201 0.30058,2.74114 0.32049,0.35414 0.30615,0.3613 -0.67932,0.33922 -0.5537,-0.0124 -2.72497,-0.1719 -4.82504,-0.35444 z m 36.18083,-0.74635 c -0.29103,-0.117 -0.41908,-0.32372 -0.41908,-0.67665 v -0.50819 l 0.65191,0.63186 c 0.35855,0.34751 0.65191,0.65732 0.65191,0.68845 0,0.10498 -0.4628,0.0341 -0.88474,-0.13547 z m -69.42808,-0.75235 c -0.92199,-0.081 -2.304963,-0.19861 -3.073275,-0.26117 -0.768323,-0.0626 -2.360835,-0.19424 -3.538935,-0.29264 -1.178088,-0.0983 -2.64488,-0.22041 -3.259527,-0.27116 -0.614658,-0.0508 -3.129158,-0.25944 -5.587775,-0.46378 -2.458621,-0.20433 -5.015028,-0.41493 -5.680905,-0.46802 -5.617581,-0.44783 -13.378657,-1.4887 -13.731544,-1.84158 -0.05522,-0.0552 0.02901,-0.37581 0.187161,-0.7124 0.158158,-0.33661 0.599053,-1.40827 0.979766,-2.38147 0.380712,-0.97321 1.024156,-2.56572 1.429873,-3.53892 0.405716,-0.97321 1.029442,-2.48191 1.386054,-3.35267 0.356614,-0.87076 0.723431,-1.75084 0.815151,-1.95572 0.09171,-0.20488 0.36938,-0.84283 0.617022,-1.41765 0.353144,-0.81971 0.565419,-1.07671 0.98416,-1.19153 0.857704,-0.2352 25.213231,-0.33556 25.213231,-0.10393 0,0.13407 -3.560749,0.2108 -11.307803,0.2437 l -11.30781,0.048 -1.727052,3.25954 -1.727053,3.25954 -0.0033,4.1501 c -0.0025,3.15775 0.0524,4.1683 0.229546,4.22612 0.182247,0.0596 12.887043,1.10026 23.049568,1.88819 0.768324,0.0596 1.648389,0.1363 1.955719,0.17049 0.307329,0.0342 1.878892,0.16734 3.492368,0.29585 2.62502,0.2091 2.93359,0.26926 2.93359,0.57206 0,0.20799 -0.12561,0.32837 -0.32596,0.31241 -0.17927,-0.0143 -1.08031,-0.0924 -2.00229,-0.1734 z m 38.83467,-1.05788 -3.7e-4,-0.51221 2.23547,0.0576 c 2.23026,0.0573 2.23547,0.0586 2.23547,0.51221 v 0.4547 h -2.23511 -2.23511 l -3.7e-4,-0.51221 z m -34.10059,0.25633 c -0.0426,-0.0383 -0.91577,-0.12329 -1.94019,-0.18891 -1.02443,-0.0656 -2.28959,-0.16802 -2.8115,-0.2276 l -0.9489,-0.10837 -0.22767,-2.35696 c -0.12522,-1.29633 -0.2671,-2.77604 -0.31531,-3.28825 -0.04823,-0.51221 -0.165003,-1.68565 -0.259591,-2.60763 -0.09459,-0.92199 -0.219806,-2.22115 -0.278299,-2.88702 -0.05851,-0.66588 -0.144264,-1.54595 -0.190613,-1.95572 -0.04636,-0.40977 -0.134443,-1.28985 -0.19575,-1.95572 -0.06131,-0.66588 -0.140913,-1.39927 -0.176903,-1.62976 -0.06516,-0.41741 -0.05512,-0.41909 2.483296,-0.41869 l 2.54872,4.1e-4 1.45772,8.52095 c 0.80175,4.68653 1.49888,8.66764 1.54919,8.84692 0.064,0.22817 -0.0147,0.32594 -0.26256,0.32594 -0.19472,0 -0.38895,-0.0313 -0.43164,-0.0696 z m -8.086752,-0.70729 c -2.237205,-0.16684 -4.032801,-0.31035 -6.612193,-0.52848 -1.178088,-0.0996 -2.64488,-0.22118 -3.259538,-0.27008 -0.614659,-0.0489 -3.129154,-0.25531 -5.587775,-0.45866 -2.458621,-0.20335 -5.224568,-0.42171 -6.146552,-0.48525 -2.409099,-0.16602 -2.327223,-0.11838 -2.334161,-1.35805 -0.0035,-0.63385 -0.115619,-1.20347 -0.27939,-1.41999 -0.215941,-0.2855 -0.274317,-1.04951 -0.277508,-3.63205 l -0.0041,-3.2705 1.168162,-2.27863 1.168163,-2.27861 11.203824,-0.004 11.203831,-0.004 0.113506,1.07098 c 0.425693,4.01661 1.42216,14.81862 1.376197,14.91843 -0.03094,0.0671 -0.810537,0.0657 -1.732525,-0.004 z m -57.83346,-1.54773 c 0,-0.2319 4.300537,-6.72186 6.46718,-9.75965 1.392194,-1.95197 2.066531,-2.7927 1.512067,-1.88517 -0.15647,0.2561 -0.598123,1.17809 -0.981448,2.04885 -0.383326,0.87076 -0.886263,2.00229 -1.117637,2.5145 -0.231375,0.51221 -0.905726,2.14663 -1.498557,3.63205 -0.592832,1.48542 -1.138692,2.76839 -1.213023,2.85106 -0.279943,0.31133 -3.168582,0.85683 -3.168582,0.59836 z M 61.73825,162.7995 c 0.0016,-2.17351 0.08187,-3.98716 0.183408,-4.14428 0.120842,-0.18698 0.181498,0.68324 0.183407,2.63139 0.0023,2.35763 0.05595,2.95484 0.28224,3.14265 0.184963,0.1535 0.279389,0.57039 0.279389,1.23349 0,0.94422 -0.02668,1.00163 -0.465648,1.00163 h -0.465647 l 0.0028,-3.86488 z m -7.582526,3.2295 -0.522599,-0.44911 -0.05853,-3.27257 -0.05853,-3.27258 0.469147,-0.46914 c 0.313567,-0.31357 0.672699,-0.4682 1.082956,-0.4663 1.066448,0.005 1.383813,0.43838 1.639117,2.23849 l 0.194922,1.37439 -0.956253,2.38296 c -0.52594,1.31064 -1.026314,2.38297 -1.111943,2.38297 -0.08563,0 -0.390859,-0.20209 -0.678287,-0.44911 z m -2.105801,-0.27935 c -3.004527,-0.82773 -5.928196,-2.19975 -7.4291,-3.48635 -1.218226,-1.04429 -1.502361,-1.82985 -1.507249,-4.16718 l -0.0041,-1.95605 2.374804,-0.62187 c 1.306142,-0.34202 2.668162,-0.69092 3.026711,-0.77534 0.358549,-0.0844 0.819539,-0.19425 1.024425,-0.24408 1.981524,-0.48199 6.81661,-1.50304 8.78405,-1.85498 l 2.451237,-0.43848 -0.309257,0.76405 c -0.170094,0.42023 -0.937884,2.33229 -1.706202,4.24901 -0.768319,1.91673 -1.411306,3.42227 -1.42886,3.34564 -0.01754,-0.0766 -0.08549,-0.53706 -0.150974,-1.02317 -0.172749,-1.28243 -0.833746,-2.00338 -1.835952,-2.00248 -0.932184,8.4e-4 -1.924011,0.55775 -2.176632,1.22219 -0.236218,0.62131 -0.23619,6.24594 3.3e-5,6.86726 0.09991,0.26278 0.162771,0.47273 0.139695,0.46656 -0.02308,-0.006 -0.586763,-0.16129 -1.25264,-0.34473 z M 130.00868,165.314 c -0.0397,-0.12806 -0.12499,-1.02909 -0.18959,-2.00229 -0.16955,-2.55405 -0.31036,-3.80021 -0.44593,-3.94668 -0.61736,-0.66692 -11.26386,-3.74321 -18.55848,-5.36243 -1.02442,-0.22741 -2.4074,-0.53494 -3.07328,-0.6834 -0.66588,-0.14848 -2.21648,-0.46682 -3.4458,-0.70743 -2.78365,-0.54485 -2.27683,-0.60347 0.83817,-0.0969 4.03294,0.65577 6.63181,1.21466 11.73433,2.52344 3.43371,0.88075 13.06035,3.91504 13.72531,4.32619 0.17769,0.10989 0.8029,4.72529 0.8029,5.92706 0,0.329 -1.28621,0.34985 -1.38763,0.0225 z M 36.954935,154.36634 c -0.20944,-0.12943 -0.704565,-2.36137 -0.72724,-3.27827 -0.009,-0.36231 0.06592,-0.38837 0.874932,-0.30462 1.439327,0.14901 4.376948,0.76587 4.570905,0.95982 0.115187,0.11515 -0.07925,0.24665 -0.542642,0.36681 -0.397189,0.10299 -1.067092,0.27693 -1.488672,0.3865 -0.529512,0.13762 -1.028362,0.47916 -1.613412,1.10463 -0.532853,0.56966 -0.931069,0.85339 -1.073871,0.76513 z m 56.630785,-2.42303 c 0,-0.12755 1.18259,-0.17921 3.49236,-0.15255 5.13195,0.0592 5.66696,0.28829 0.74502,0.31899 -2.81453,0.0175 -4.23738,-0.0383 -4.23738,-0.16644 z M 47.24,150.56477 c 0.03962,-0.30236 -0.126913,-0.6544 -0.498882,-1.05461 -0.376712,-0.40532 -0.191539,-0.30312 0.569201,0.31416 1.131403,0.91803 1.171496,1.14409 0.209489,1.18121 -0.254228,0.009 -0.324372,-0.10066 -0.279808,-0.44076 z"
       style="fill:#f1f1f1;fill-opacity:1;stroke-width:0.18625914" />
  </g>
  <g
     inkscape:groupmode="layer"
     id="layer3"
     inkscape:label="car" />
  <g
     inkscape:label="Layer 1"
     inkscape:groupmode="layer"
     id="layer1"
     transform="translate(0,-26.066725)">
    <g
       id="g4755"
       transform="matrix(1.0902911,0,0,1.0902911,-31.790618,-1.4812386)">
      <path
         inkscape:connector-curvature="0"
         id="path20"
         style="fill:#ffffff;fill-opacity:1;fill-rule:nonzero;stroke:none;stroke-width:0.03527778"
         d="m 89.87233,125.47216 c 1.9491,-0.64982 41.79465,-1.29928 43.52714,0 1.73249,1.29928 8.6621,9.74478 8.6621,11.04406 0,1.29928 -34.64842,2.38195 -60.63473,0.43321 -1.52718,-0.11465 6.4964,-10.82781 8.44549,-11.47727 z m 59.6071,21.00544 c -1.08303,8.22925 -13.42601,7.14622 -15.37511,5.63069 -1.94875,-1.51624 -2.59856,-4.76426 -1.94875,-5.19748 0.64947,-0.43321 17.59197,-2.47015 17.32386,-0.43321 z m -35.35327,6.28015 c 0,1.54834 -1.26683,2.81517 -2.81517,2.81517 -1.54834,0 -2.81516,-1.26683 -2.81516,-2.81517 v -0.86642 c 0,-1.54834 1.26682,-2.81481 2.81516,-2.81481 1.54834,0 2.81517,1.26647 2.81517,2.81481 z m -25.3365,-0.64946 c -1.9491,1.51553 -14.29279,2.59856 -15.37547,-5.63069 -0.26775,-2.03694 16.67475,0 17.32422,0.43321 0.64981,0.43322 0,3.68124 -1.94875,5.19748 z M 73.2438,139.55822 c -2.39148,2.98803 -4.1977,5.3086 -4.59387,5.83671 -1.29928,1.73249 0.43321,20.35598 0.21661,21.87187 0,0 42.44445,7.14622 84.88856,0 0,0 1.51694,-17.54082 0.43391,-20.57259 -0.3563,-0.99836 -2.28952,-3.7592 -4.83305,-7.08272 6.40997,-1.08832 8.20914,-6.00639 5.7538,-7.64293 -2.33891,-1.55857 -9.7543,0.3877 -11.22186,0.7941 -4.07599,-4.92301 -8.13787,-9.43151 -9.62236,-10.32228 -3.24838,-1.94909 -42.66071,-1.08267 -45.25963,-0.43321 -1.25377,0.31362 -5.73405,5.36611 -10.18152,10.70575 -1.8108,-0.49212 -8.78628,-2.24684 -11.04053,-0.74436 -2.41617,1.61114 -0.71049,6.40292 5.45994,7.58966"
         transform="translate(0,26.066725)" />
      <path
         sodipodi:nodetypes="cccccccc"
         inkscape:connector-curvature="0"
         id="path30"
         style="fill:#ffffff;fill-opacity:1;fill-rule:nonzero;stroke:none;stroke-width:0.03527778"
         d="m 153.49757,176.21818 c 0.14817,-1.98261 -0.15169,-6.78603 -0.15169,-6.78603 0,0 -9.96104,1.94909 -16.24084,1.73249 v 5.05354 H 85.54128 v -5.05354 c -6.28015,0.2166 -16.24153,-1.73249 -16.24153,-1.73249 0,0 -0.29986,4.80342 -0.15029,6.78603"
         transform="translate(0,26.066725)" />
      <g
         transform="translate(4.915134,13.822309)"
         id="g4727">
        <flowRoot
           xml:space="preserve"
           id="flowRoot4504"
           style="font-style:normal;font-variant:normal;font-weight:normal;font-stretch:normal;font-size:39.99921417px;line-height:25px;font-family:'Expressway Free';-inkscape-font-specification:'Expressway Free, Normal';font-variant-ligatures:normal;font-variant-caps:normal;font-variant-numeric:normal;font-feature-settings:normal;text-align:start;letter-spacing:0px;word-spacing:0px;writing-mode:lr-tb;text-anchor:start;fill:#ffffff;fill-opacity:1;stroke:none;stroke-width:1px;stroke-linecap:butt;stroke-linejoin:miter;stroke-opacity:1"
           transform="matrix(1.2548835,0,0,1.2548835,-49.255502,-209.59495)"><flowRegion
             id="flowRegion4506"
             style="font-style:normal;font-variant:normal;font-weight:normal;font-stretch:normal;font-size:39.99921417px;font-family:'Expressway Free';-inkscape-font-specification:'Expressway Free, Normal';font-variant-ligatures:normal;font-variant-caps:normal;font-variant-numeric:normal;font-feature-settings:normal;text-align:start;writing-mode:lr-tb;text-anchor:start;fill:#ffffff;fill-opacity:1"><rect
               id="rect4508"
               width="791.95959"
               height="428.30469"
               x="117.1777"
               y="238.10132"
               style="font-style:normal;font-variant:normal;font-weight:normal;font-stretch:normal;font-size:39.99921417px;font-family:'Expressway Free';-inkscape-font-specification:'Expressway Free, Normal';font-variant-ligatures:normal;font-variant-caps:normal;font-variant-numeric:normal;font-feature-settings:normal;text-align:start;writing-mode:lr-tb;text-anchor:start;fill:#ffffff;fill-opacity:1" /></flowRegion><flowPara
             id="flowPara4512">Snatch</flowPara></flowRoot>        <flowRoot
           xml:space="preserve"
           id="flowRoot4504-5"
           style="font-style:normal;font-variant:normal;font-weight:normal;font-stretch:normal;font-size:39.99921417px;line-height:25px;font-family:'Expressway Free';-inkscape-font-specification:'Expressway Free, Normal';font-variant-ligatures:normal;font-variant-caps:normal;font-variant-numeric:normal;font-feature-settings:normal;text-align:start;letter-spacing:0px;word-spacing:0px;writing-mode:lr-tb;text-anchor:start;fill:#ffffff;fill-opacity:1;stroke:none;stroke-width:1px;stroke-linecap:butt;stroke-linejoin:miter;stroke-opacity:1"
           transform="matrix(1.2548835,0,0,1.2548835,19.020586,-166.84144)"><flowRegion
             id="flowRegion4506-1"
             style="font-style:normal;font-variant:normal;font-weight:normal;font-stretch:normal;font-size:39.99921417px;font-family:'Expressway Free';-inkscape-font-specification:'Expressway Free, Normal';font-variant-ligatures:normal;font-variant-caps:normal;font-variant-numeric:normal;font-feature-settings:normal;text-align:start;writing-mode:lr-tb;text-anchor:start;fill:#ffffff;fill-opacity:1"><rect
               id="rect4508-7"
               width="791.95959"
               height="428.30469"
               x="117.1777"
               y="238.10132"
               style="font-style:normal;font-variant:normal;font-weight:normal;font-stretch:normal;font-size:39.99921417px;font-family:'Expressway Free';-inkscape-font-specification:'Expressway Free, Normal';font-variant-ligatures:normal;font-variant-caps:normal;font-variant-numeric:normal;font-feature-settings:normal;text-align:start;writing-mode:lr-tb;text-anchor:start;fill:#ffffff;fill-opacity:1" /></flowRegion><flowPara
             id="flowPara4512-8">Car</flowPara><flowPara
             id="flowPara4540" /></flowRoot>      </g>
    </g>
  </g>
</svg>
